<?xml version="1.0" encoding="utf-8"?>
<!-- Generator: Adobe Illustrator 27.5.0, SVG Export Plug-In . SVG Version: 6.00 Build 0)  -->
<svg version="1.1" xmlns="http://www.w3.org/2000/svg" xmlns:xlink="http://www.w3.org/1999/xlink" x="0px" y="0px"
	 viewBox="0 0 500 500" style="enable-background:new 0 0 500 500;" xml:space="preserve">
<g id="BACKGROUND">
	<rect style="fill:#FFFFFF;" width="500" height="500"/>
</g>
<g id="OBJECTS">
	<g>
		<polygon style="fill:#353945;" points="276.006,78.552 223.676,69.285 208.143,48.597 219.297,41.033 		"/>
		<g>
			<polygon style="fill:#87858A;" points="218.986,43.715 216.859,47.132 265.371,77.896 267.497,74.478 			"/>
			
				<rect x="287.911" y="62.758" transform="matrix(0.5283 -0.8491 0.8491 0.5283 59.6284 289.7802)" style="fill:#353945;" width="5.39" height="56.938"/>
		</g>
		<g>
			
				<rect x="270.457" y="81.624" transform="matrix(0.8797 -0.4756 0.4756 0.8797 -16.6112 142.0871)" style="fill:#87858A;" width="4.025" height="44.49"/>
			
				<rect x="293.893" y="120.011" transform="matrix(0.8797 -0.4756 0.4756 0.8797 -34.9262 158.9261)" style="fill:#353945;" width="5.39" height="56.938"/>
		</g>
		<g>
			<path style="fill:#FFA904;" d="M305.761,92.996c0.328-1.432-0.429-2.888-1.792-3.436l-78.636-37.517
				c-1.476-0.653-3.182-0.512-4.531,0.373l-9.396,6.633c-3.002,1.97-2.822,6.429,0.33,8.149l85.401,48.143
				c1.786,0.999,4.014-0.054,4.392-2.066C302.803,106.49,304.22,99.73,305.761,92.996z"/>
			<path style="fill:#EB8A03;" d="M301.514,94.91c0.317-1.436-0.451-2.888-1.82-3.425l-75.942-36.043
				c-0.488-0.211-1.049-0.163-1.493,0.129l-8.51,6.052c-0.996,0.653-0.937,2.133,0.108,2.705l80.574,45.553
				c1.779,1,4.005-0.04,4.396-2.043C299.667,103.517,300.564,99.208,301.514,94.91z"/>
		</g>
		<path style="fill:#353945;" d="M222.237,62.036c0.333,1.428-0.555,2.855-1.983,3.188c-1.428,0.333-2.855-0.555-3.188-1.983
			c-0.333-1.428,0.555-2.855,1.983-3.188C220.477,59.72,221.904,60.608,222.237,62.036z"/>
		<g>
			<g>
				<path style="fill:#FFA904;" d="M220.466,56.494L101.762,69.355l3.33-7.86l0,0l107.464-30.599
					c0.248-0.005,0.495,0.038,0.726,0.127l14.45,19.521l-6.226,5.484C221.214,56.285,220.852,56.447,220.466,56.494z"/>
				<polygon style="fill:#EB8A03;" points="107.768,64.523 211.648,34.945 222.808,50.022 219.506,52.931 107.54,65.061 				"/>
			</g>
			<polygon style="fill:#5A6175;" points="94.134,120.343 87.33,118.322 79.312,101.471 77.488,72.816 106.602,62.65 
				112.509,65.741 111.757,70.093 104.446,112.397 			"/>
			<polygon style="fill:#5A6175;" points="103.021,123.58 94.134,120.343 84.676,101.84 88.31,77.748 111.757,70.093 			"/>
			<polygon style="fill:#353945;" points="100.905,118.412 94.134,120.343 84.676,101.84 88.31,77.748 99.353,70.815 			"/>
			<g>
				<path style="fill:#87858A;" d="M98.933,71.562L98.933,71.562c0.177,0.91,1.057,1.504,1.967,1.327l31.03-6.03l-0.64-3.294
					l-31.03,6.03C99.35,69.771,98.756,70.652,98.933,71.562z"/>
				<path style="fill:#353945;" d="M204.971,51.576l0.217,1.116c0.177,0.91-0.417,1.79-1.327,1.967l-71.823,12.758l-0.857-4.41
					l71.823-12.758C203.914,50.072,204.794,50.666,204.971,51.576z"/>
			</g>
			<path style="fill:#FFA904;" d="M106.662,76.269c-2.135,2.862-6.187,3.45-9.048,1.315c-2.862-2.135-3.45-6.186-1.315-9.048
				c2.135-2.862,6.186-3.45,9.048-1.315C108.209,69.357,108.797,73.408,106.662,76.269z"/>
			<path style="fill:#353945;" d="M103.608,73.991c-0.877,1.175-2.54,1.417-3.715,0.54c-1.175-0.877-1.417-2.54-0.54-3.715
				c0.877-1.175,2.54-1.417,3.715-0.54C104.243,71.152,104.485,72.815,103.608,73.991z"/>
			<polygon style="fill:#5A6175;" points="87.33,118.322 113.606,128.37 112.886,123.367 84.676,101.84 79.312,101.471 			"/>
			<path style="fill:#353945;" d="M216.331,49.167c0.52,1.371-0.17,2.904-1.541,3.424c-1.371,0.52-2.904-0.17-3.424-1.54
				c-0.52-1.371,0.169-2.904,1.54-3.424C214.278,47.106,215.811,47.796,216.331,49.167z"/>
		</g>
		<path style="fill:#FFA904;" d="M357.584,161.423l-34.652,20.088l-37.115-76.766c-2.085-4.312-0.493-9.502,3.65-11.904l6.968-4.04
			c4.109-2.382,9.358-1.225,12.085,2.663L357.584,161.423z"/>
		<path style="fill:#EB8A03;" d="M324.624,175.639l-35.313-73.669c-0.878-1.833-0.2-4.032,1.558-5.051l8.364-4.848
			c1.742-1.01,3.967-0.525,5.13,1.119l47.284,66.785L324.624,175.639z"/>
		<path style="fill:#353945;" d="M299.377,100.092c1.097,0.973,1.198,2.651,0.225,3.748c-0.973,1.097-2.651,1.198-3.748,0.225
			c-1.097-0.973-1.198-2.651-0.225-3.748C296.602,99.22,298.28,99.119,299.377,100.092z"/>
		<path style="fill:#5A6175;" d="M422.18,205.132h-43.168V159.28h68.741v20.279C447.753,193.683,436.303,205.132,422.18,205.132z"/>
		<path style="fill:#87858A;" d="M420.472,198.43h-46.003v-33.897h65.924v13.977C440.393,189.512,431.474,198.43,420.472,198.43z"/>
		<path style="fill:#FFA904;" d="M385.399,113.435v91.689h-86.172v-26.213l22.069-52.668c1.495-3.075,3.609-5.712,6.173-7.777
			c3.962-3.196,8.956-5.031,14.23-5.031H385.399z"/>
		<path style="fill:#5A6175;" d="M371.003,118.466v40.807l-11.921,19.638h-59.854l22.069-52.668
			c1.495-3.075,3.609-5.712,6.173-7.777H371.003z"/>
		<path style="fill:#353945;" d="M311.904,176.083c-0.648,0-1.27-0.259-1.725-0.719c-0.457-0.46-0.711-1.083-0.705-1.731
			c0.103-12.127,2.943-24.313,8.214-35.24l4.329-8.975c2.12-4.395,6.643-7.234,11.523-7.234h31.503c1.342,0,2.431,1.088,2.431,2.43
			v12.794c0,12.39-4.673,24.185-13.159,33.214l-4.415,4.697c-0.459,0.488-1.1,0.766-1.771,0.766H311.904z"/>
		<rect x="299.227" y="183.867" style="fill:#FFCB04;" width="86.172" height="21.265"/>
		<rect x="309.998" y="192.882" style="fill:#E88D03;" width="38.711" height="12.239"/>
		<g>
			<path style="fill:#98D7F6;" d="M352.543,168.955l-4.414,4.697h-36.225v0c0.102-11.85,2.824-23.531,7.973-34.205l4.329-8.975
				c1.728-3.583,5.356-5.861,9.334-5.861h31.503v12.794C365.042,149.13,360.572,160.413,352.543,168.955z"/>
			<polygon style="opacity:0.42;fill:#FFFFFF;" points="316.763,173.652 330.818,173.652 350.556,125.11 336.719,125.11 			"/>
			<polygon style="opacity:0.42;fill:#FFFFFF;" points="333.607,173.652 338.839,173.652 358.577,125.11 353.563,125.11 			"/>
		</g>
		<path style="fill:#E88D03;" d="M385.398,191.118L385.398,191.118c-0.813,0,0-0.659,0-1.472l0,0c0-0.813-0.813-1.472,0-1.472l0,0
			c0.813,0,0,0.659,0,1.472l0,0C385.398,190.459,386.211,191.118,385.398,191.118z"/>
		<rect x="348.097" y="121.39" style="fill:#5A6175;" width="5.6" height="52.262"/>
		<polygon style="fill:#FFA904;" points="411.444,172.14 379.009,172.14 379.009,132.317 385.401,113.433 392.851,118.464 
			395.232,120.068 403.302,145.977 		"/>
		<polygon style="fill:#5A6175;" points="404.146,148.689 387.175,149.132 387.175,118.464 392.851,118.464 395.232,120.068 		"/>
		<rect x="385.398" y="147.521" style="fill:#FFA904;" width="49.52" height="36.346"/>
		<rect x="385.398" y="172.14" style="fill:#E88D03;" width="49.52" height="11.727"/>
		<rect x="401.293" y="151.573" style="fill:#353945;" width="28.799" height="2.454"/>
		<rect x="401.293" y="156.826" style="fill:#353945;" width="28.799" height="2.454"/>
		<rect x="401.293" y="162.079" style="fill:#353945;" width="28.799" height="2.454"/>
		<rect x="299.227" y="201.226" style="fill:#353945;" width="135.691" height="7.121"/>
		<g>
			<path style="fill:#353945;stroke:#5A6175;stroke-width:2;stroke-miterlimit:10;" d="M291.151,236.339h163.633
				c8.282,0,14.995-6.714,14.995-14.996l0,0c0-8.282-6.714-14.995-14.995-14.995H291.151c-8.282,0-14.996,6.714-14.996,14.995l0,0
				C276.156,229.625,282.87,236.339,291.151,236.339z"/>
			<path style="fill:none;stroke:#87858A;stroke-miterlimit:10;" d="M298.224,210.719h152.44c5.867,0,10.624,4.756,10.624,10.624
				l0,0c0,5.867-4.756,10.624-10.624,10.624h-152.44"/>
			<g>
				
					<ellipse transform="matrix(0.9872 -0.1595 0.1595 0.9872 -29.4938 75.3098)" style="fill:#353945;" cx="454.284" cy="221.343" rx="12.996" ry="12.996"/>
				
					<ellipse transform="matrix(0.9872 -0.1595 0.1595 0.9872 -29.4938 75.3098)" style="fill:#87858A;" cx="454.284" cy="221.343" rx="12.996" ry="12.996"/>
				<circle style="fill:#87858A;" cx="454.285" cy="221.343" r="9.307"/>
				<path style="fill:#353945;" d="M447.281,221.343c0,3.868,3.135,7.003,7.003,7.003s7.004-3.135,7.004-7.003
					c0-3.868-3.136-7.004-7.004-7.004S447.281,217.475,447.281,221.343z"/>
				<path style="fill:#5A6175;" d="M454.284,225.824c2.471,0,4.481-2.01,4.481-4.481c0-2.471-2.01-4.481-4.481-4.481
					c-2.47,0-4.48,2.01-4.48,4.481C449.804,223.814,451.814,225.824,454.284,225.824z"/>
			</g>
			<path style="fill:#5A6175;" d="M314.074,228.882H293.82c-4.164,0-7.539-3.375-7.539-7.539l0,0c0-4.163,3.375-7.539,7.539-7.539
				h20.254V228.882z"/>
			<rect x="317.726" y="218.691" style="fill:#87858A;" width="120.057" height="5.905"/>
			<g>
				<path style="fill:#87858A;" d="M352.287,214.129c0,0.728-0.59,1.318-1.318,1.318c-0.728,0-1.318-0.59-1.318-1.318
					s0.59-1.318,1.318-1.318C351.697,212.811,352.287,213.401,352.287,214.129z"/>
				<path style="fill:#87858A;" d="M372.97,214.129c0,0.728-0.59,1.318-1.318,1.318c-0.728,0-1.318-0.59-1.318-1.318
					s0.59-1.318,1.318-1.318C372.38,212.811,372.97,213.401,372.97,214.129z"/>
			</g>
		</g>
	</g>
	<g>
		<rect x="403.751" y="370.532" style="fill:#353945;" width="31.479" height="6.713"/>
		<rect x="348.077" y="420.506" style="fill:#353945;" width="105.222" height="5.7"/>
		<polygon style="fill:#FFA904;" points="469.737,420.506 376.293,420.506 376.293,375.157 450.083,375.157 469.737,397.832 		"/>
		<polygon style="fill:#EB8A03;" points="454.514,380.269 450.083,375.157 376.293,375.157 376.293,380.269 		"/>
		<rect x="376.293" y="411.076" style="fill:#EB8A03;" width="93.444" height="9.43"/>
		<g>
			<rect x="265.43" y="346.144" style="fill:#5A6175;" width="3.544" height="22"/>
			<path style="fill:#FFA904;" d="M284.952,352.172h-22.903c-0.761,0-1.378-0.617-1.378-1.378v-10.173
				c0-0.686,0.505-1.267,1.184-1.364l28.885-4.113c1.059-0.151,1.878,0.91,1.465,1.896l-5.982,14.285
				C286.008,351.839,285.507,352.172,284.952,352.172z"/>
			<polygon style="fill:#EB8A03;" points="263.849,348.994 263.849,342.185 288.048,338.74 283.754,348.994 			"/>
			<path style="fill:#87858A;" d="M373.991,313.965l10.076,18.534l-58.382-26.35l-18-8.396l2.326-6.752
				c0.356-1.033,0.992-1.948,1.837-2.641l4.735-3.885c1.85-1.518,4.432-1.769,6.539-0.636l44.8,24.086
				C370.49,309.304,372.599,311.404,373.991,313.965z"/>
			<g>
				<polygon style="fill:#5A6175;" points="321.982,287.324 320.407,290.461 349.926,306.271 351.501,303.135 				"/>
				
					<rect x="366.974" y="289.236" transform="matrix(0.4488 -0.8937 0.8937 0.4488 -77.0734 503.1679)" style="fill:#353945;" width="4.699" height="49.644"/>
			</g>
			<g>
				
					<rect x="343.085" y="308.905" transform="matrix(0.8327 -0.5537 0.5537 0.8327 -124.097 245.8749)" style="fill:#87858A;" width="3.509" height="38.791"/>
				
					<rect x="366.974" y="340.298" transform="matrix(0.8327 -0.5537 0.5537 0.8327 -140.3885 265.5892)" style="fill:#353945;" width="4.699" height="49.644"/>
			</g>
			<g>
				<path style="fill:#FFA904;" d="M324.225,302.645l-42.406,75.483l-3.976-6.291l0,0l24.112-76.245
					c0.12-0.18,0.273-0.335,0.452-0.457l21.166-0.651l0.835,7.186C324.447,302.006,324.383,302.346,324.225,302.645z"/>
				<polygon style="fill:#EB8A03;" points="281.341,371.424 304.404,298.254 320.752,297.752 321.195,301.563 281.614,371.855 				
					"/>
			</g>
			<g>
				<path style="fill:#87858A;" d="M283.216,377.753L283.216,377.753c0.739,0.325,1.603-0.01,1.928-0.75l11.101-25.227l-2.678-1.178
					l-11.101,25.227C282.141,376.564,282.477,377.427,283.216,377.753z"/>
				<path style="fill:#353945;" d="M312.637,307.901l-19.524,42.497l3.585,1.578l19.53-42.51
					C315.037,308.93,313.84,308.409,312.637,307.901z"/>
			</g>
			<g>
				<path style="fill:#FFA904;" d="M389.046,325.83c0.171-1.269-0.602-2.474-1.829-2.841l-71.256-26.332
					c-1.333-0.45-2.804-0.192-3.905,0.683l-7.632,6.505c-2.451,1.949-1.94,5.806,0.933,7.05l77.974,35.02
					c1.63,0.726,3.481-0.366,3.649-2.142C387.55,337.782,388.243,331.8,389.046,325.83z"/>
				<path style="fill:#EB8A03;" d="M385.511,327.829c0.162-1.272-0.621-2.472-1.852-2.83l-68.8-25.266
					c-0.44-0.145-0.924-0.058-1.286,0.23l-6.909,5.931c-0.813,0.647-0.644,1.926,0.309,2.34l73.577,33.155
					c1.624,0.727,3.474-0.353,3.654-2.123C384.591,335.449,385.027,331.637,385.511,327.829z"/>
			</g>
			<path style="fill:#353945;" d="M314.066,305.58c0.402,1.214-0.256,2.523-1.469,2.925c-1.214,0.402-2.523-0.255-2.925-1.469
				c-0.402-1.214,0.255-2.523,1.469-2.925C312.354,303.709,313.664,304.367,314.066,305.58z"/>
			<path style="fill:#353945;" d="M269.192,344.356c0.402,1.214-0.256,2.523-1.469,2.925c-1.214,0.402-2.523-0.255-2.925-1.469
				c-0.402-1.214,0.255-2.523,1.469-2.925C267.48,342.485,268.79,343.143,269.192,344.356z"/>
			<path style="fill:#FFA904;" d="M408.488,404.28l-34.512,5.338l-5.826-74.116c-0.327-4.163,2.61-7.875,6.737-8.513l6.94-1.073
				c4.093-0.633,7.99,1.97,8.973,5.993L408.488,404.28z"/>
			<path style="fill:#EB8A03;" d="M377.21,405.384l-5.343-71.029c-0.133-1.767,1.115-3.339,2.866-3.61l8.33-1.288
				c1.735-0.268,3.388,0.831,3.813,2.534l17.248,69.23L377.21,405.384z"/>
			<path style="fill:#353945;" d="M384.067,332.498c1.03,0.758,1.25,2.206,0.493,3.236c-0.758,1.03-2.206,1.25-3.236,0.493
				c-1.03-0.757-1.251-2.206-0.493-3.236C381.588,331.961,383.037,331.741,384.067,332.498z"/>
			<polygon style="fill:#353945;" points="280.439,442.989 277.452,448.355 274.465,442.989 274.465,418.832 280.439,418.832 			"/>
			<g>
				<rect x="267.675" y="375.843" style="fill:#5A6175;" width="19.554" height="39.878"/>
				<rect x="274.322" y="375.843" style="fill:#353945;" width="12.907" height="39.878"/>
				<rect x="265.939" y="415.721" style="fill:#EB8A03;" width="23.606" height="5.541"/>
			</g>
			<rect x="261.845" y="368.144" style="fill:#353945;" width="14.93" height="7.699"/>
			<rect x="270.468" y="380.269" style="fill:#5A6175;" width="14.539" height="2.378"/>
			<rect x="270.468" y="388.94" style="fill:#5A6175;" width="14.539" height="2.378"/>
			<rect x="270.468" y="397.611" style="fill:#5A6175;" width="14.539" height="2.378"/>
			<rect x="270.468" y="406.281" style="fill:#5A6175;" width="14.539" height="2.378"/>
		</g>
		<g>
			<path style="fill:#353945;stroke:#5A6175;stroke-width:2;stroke-miterlimit:10;" d="M345.505,452.664h104.315
				c7.221,0,13.075-5.854,13.075-13.075l0,0c0-7.221-5.854-13.075-13.075-13.075H345.505c-7.221,0-13.075,5.854-13.075,13.075l0,0
				C332.431,446.811,338.284,452.664,345.505,452.664z"/>
			<path style="fill:#87858A;" d="M459.154,430.442c-2.373-2.421-5.676-3.927-9.333-3.927H345.505c-3.658,0-6.96,1.506-9.333,3.927
				H459.154z"/>
			<path style="fill:none;stroke:#87858A;stroke-miterlimit:10;" d="M346.374,430.327h99.854c5.116,0,9.263,4.147,9.263,9.263l0,0
				c0,5.116-4.147,9.263-9.263,9.263h-99.854"/>
			<g>
				<circle style="fill:#353945;" cx="449.385" cy="439.59" r="11.331"/>
				<circle style="fill:#87858A;" cx="449.385" cy="439.59" r="11.331"/>
				<circle style="fill:#87858A;" cx="449.385" cy="439.59" r="8.115"/>
				<path style="fill:#353945;" d="M443.279,439.59c0,3.372,2.734,6.106,6.106,6.106s6.106-2.734,6.106-6.106
					c0-3.372-2.734-6.106-6.106-6.106S443.279,436.218,443.279,439.59z"/>
				<path style="fill:#5A6175;" d="M449.385,443.497c2.154,0,3.907-1.753,3.907-3.907c0-2.154-1.753-3.907-3.907-3.907
					c-2.154,0-3.906,1.753-3.906,3.907C445.478,441.744,447.231,443.497,449.385,443.497z"/>
			</g>
			<rect x="343.925" y="433.017" style="fill:#5A6175;" width="16.268" height="13.146"/>
			<rect x="363.378" y="437.278" style="fill:#87858A;" width="71.619" height="5.148"/>
			<g>
				<path style="fill:#87858A;" d="M393.511,433.3c0,0.634-0.514,1.149-1.149,1.149c-0.635,0-1.149-0.514-1.149-1.149
					c0-0.635,0.514-1.149,1.149-1.149C392.997,432.151,393.511,432.665,393.511,433.3z"/>
				<path style="fill:#87858A;" d="M411.545,433.3c0,0.634-0.514,1.149-1.149,1.149c-0.634,0-1.149-0.514-1.149-1.149
					c0-0.635,0.514-1.149,1.149-1.149C411.03,432.151,411.545,432.665,411.545,433.3z"/>
			</g>
		</g>
		<path style="fill:#5A6175;" d="M401.942,417.504l0.817-0.817c2.053-2.053,3.139-4.88,2.988-7.78l-1.997-38.375
			c-0.283-5.446-4.782-9.716-10.235-9.716h-30.685c-3.583,0-6.905,1.871-8.763,4.934l-18.898,31.16
			c-0.972,1.602-1.486,3.441-1.486,5.315v8.032c0,5.66,4.589,10.249,10.249,10.249h50.763
			C397.413,420.506,400.02,419.426,401.942,417.504z"/>
		<path style="fill:#353945;" d="M343.933,417.327h28.155c4.966-4.064,24.566-21.279,29.575-25.734l-1.087-20.896
			c-0.195-3.759-3.297-6.703-7.061-6.703h-30.685c-2.455,0-4.772,1.304-6.045,3.404l-18.898,31.159
			c-0.671,1.107-1.025,2.376-1.025,3.668v8.032C336.862,414.156,340.034,417.327,343.933,417.327z"/>
		<g>
			<defs>
				<path id="SVGID_1_" d="M343.933,415.208c-2.73,0-4.951-2.221-4.951-4.951v-8.032c0-0.905,0.248-1.794,0.719-2.57l18.897-31.158
					c0.892-1.47,2.513-2.384,4.233-2.384h30.685c2.635,0,4.807,2.062,4.945,4.694l1.034,19.878
					c-5.989,5.308-22.825,20.076-28.168,24.523H343.933z"/>
			</defs>
			<clipPath id="SVGID_00000058585245654117840460000006546553989536784046_">
				<use xlink:href="#SVGID_1_"  style="overflow:visible;"/>
			</clipPath>
			<path style="clip-path:url(#SVGID_00000058585245654117840460000006546553989536784046_);fill:#98D7F6;" d="M343.933,415.208
				c-2.73,0-4.951-2.221-4.951-4.951v-8.032c0-0.905,0.248-1.794,0.719-2.57l18.897-31.158c0.892-1.47,2.513-2.384,4.233-2.384
				h30.685c2.635,0,4.807,2.062,4.945,4.694l1.034,19.878c-5.989,5.308-22.825,20.076-28.168,24.523H343.933z"/>
			
				<polygon style="opacity:0.42;clip-path:url(#SVGID_00000058585245654117840460000006546553989536784046_);fill:#FFFFFF;" points="
				347.559,415.649 362.133,415.649 382.6,363.995 368.252,363.995 			"/>
			
				<polygon style="opacity:0.42;clip-path:url(#SVGID_00000058585245654117840460000006546553989536784046_);fill:#FFFFFF;" points="
				365.024,415.649 370.449,415.649 390.916,363.995 385.717,363.995 			"/>
		</g>
		<g>
			<rect x="441.968" y="385.663" style="fill:#353945;" width="14.797" height="20.914"/>
			<rect x="443.409" y="388.565" style="fill:#5A6175;" width="11.915" height="1.843"/>
			<rect x="443.409" y="392.154" style="fill:#5A6175;" width="11.915" height="1.843"/>
			<rect x="443.409" y="395.743" style="fill:#5A6175;" width="11.915" height="1.843"/>
			<rect x="443.409" y="399.332" style="fill:#5A6175;" width="11.915" height="1.842"/>
			<rect x="443.409" y="402.921" style="fill:#5A6175;" width="11.915" height="1.842"/>
		</g>
		<rect x="410.396" y="382.398" style="fill:#FFCB04;" width="20.241" height="24.178"/>
		<rect x="371.25" y="365.05" style="fill:#353945;" width="3.363" height="50.159"/>
	</g>
	<g>
		<rect x="140.982" y="408.715" style="fill:#23262E;" width="63.793" height="24.576"/>
		<g>
			<polygon style="fill:#353945;" points="61.552,385.46 72.108,376.873 73.373,376.884 66.367,387.546 			"/>
			<polygon style="fill:#353945;" points="66.765,387.391 77.321,378.804 78.585,378.815 71.58,389.477 			"/>
			<polygon style="fill:#353945;" points="71.978,389.322 82.534,380.735 83.798,380.746 76.792,391.408 			"/>
			<polygon style="fill:#353945;" points="77.191,391.253 87.746,382.666 89.011,382.677 82.005,393.339 			"/>
			<polygon style="fill:#353945;" points="82.403,393.184 92.959,384.597 94.224,384.608 87.218,395.27 			"/>
			<polygon style="fill:#353945;" points="129.95,318.236 147.422,338.178 98.929,323.924 47.667,294.782 56.356,287.653 			"/>
			<g>
				<polygon style="fill:#87858A;" points="56.302,289.904 54.795,292.904 97.422,314.769 98.929,311.769 				"/>
				
					<rect x="117.146" y="300.181" transform="matrix(0.4487 -0.8937 0.8937 0.4487 -223.6627 285.2697)" style="fill:#353945;" width="4.495" height="47.486"/>
			</g>
			<g>
				
					<rect x="110.051" y="313.067" transform="matrix(-0.8327 0.5537 -0.5537 -0.8327 388.111 545.9835)" style="fill:#87858A;" width="3.058" height="37.105"/>
				
					<rect x="132.952" y="343.096" transform="matrix(-0.8327 0.5537 -0.5537 -0.8327 450.5356 597.5616)" style="fill:#353945;" width="4.095" height="47.486"/>
			</g>
			<g>
				<path style="fill:#FFA904;" d="M56.215,288.56l-3.238,99.526l-6.102-3.667c0,0,0,0,0,0l-12.723-92.315
					c0.025-0.205,0.089-0.404,0.19-0.585l17.807-9.653l3.802,5.781C56.13,287.918,56.222,288.236,56.215,288.56z"/>
				<polygon style="fill:#EB8A03;" points="49.688,382.563 37.39,293.326 51.144,285.871 53.16,288.937 50.106,382.814 				"/>
			</g>
			<polygon style="fill:#5A6175;" points="94.193,400.338 91.729,405.721 76.878,410.375 53.002,408.536 48.006,383.307 
				51.248,378.79 54.754,379.919 88.835,390.895 			"/>
			<polygon style="fill:#5A6175;" points="97.903,393.377 94.193,400.338 77.808,405.988 58.338,400.175 54.754,379.919 			"/>
			<polygon style="fill:#353945;" points="97.903,393.377 94.193,400.338 76.878,410.375 57.058,399.594 64.592,382.987 			"/>
			<g>
				<path style="fill:#87858A;" d="M54.469,390.681L54.469,390.681c0.772-0.04,1.365-0.698,1.325-1.469l-1.357-26.329l-2.795,0.144
					L53,389.355C53.04,390.127,53.698,390.72,54.469,390.681z"/>
				<path style="fill:#353945;" d="M50.345,300.782l0.947-0.049c0.772-0.04,1.43,0.554,1.469,1.325l2.15,60.8l-3.742,0.193
					l-2.15-60.8C48.98,301.479,49.573,300.821,50.345,300.782z"/>
			</g>
			<g>
				<path style="fill:#FFA904;" d="M152.785,330.463c-0.023-1.225-0.928-2.252-2.141-2.421L48.772,299.616
					c-1.326-0.232-2.679,0.225-3.593,1.212l-6.272,7.257c-2.034,2.198-0.992,5.771,1.905,6.53l110.332,37.837
					c1.646,0.45,3.238-0.85,3.14-2.555C153.951,344.151,152.891,336.224,152.785,330.463z"/>
				<path style="fill:#EB8A03;" d="M149.732,332.865c-0.032-1.226-0.946-2.247-2.162-2.407l-99.395-27.774
					c-0.437-0.073-0.882,0.079-1.183,0.404l-5.672,6.609c-0.675,0.729-0.33,1.915,0.631,2.168l105.904,36.711
					c1.641,0.452,3.234-0.837,3.147-2.537C150.815,342.374,149.827,336.535,149.732,332.865z"/>
				<path style="fill:#353945;" d="M48.274,308.327c0.556,1.089,0.124,2.423-0.965,2.979c-1.089,0.556-2.423,0.124-2.979-0.965
					c-0.556-1.089-0.124-2.423,0.965-2.979C46.384,306.806,47.718,307.238,48.274,308.327z"/>
			</g>
			<path style="fill:#FFA904;" d="M59.259,384.847c2.114,2.097,2.127,5.511,0.029,7.625c-2.098,2.114-5.512,2.127-7.625,0.029
				c-2.114-2.098-2.127-5.512-0.03-7.625C53.732,382.763,57.146,382.75,59.259,384.847z"/>
			<path style="fill:#353945;" d="M57.021,387.103c0.868,0.861,0.874,2.263,0.012,3.131c-0.861,0.868-2.263,0.873-3.131,0.012
				c-0.868-0.861-0.873-2.263-0.012-3.131C54.751,386.247,56.153,386.242,57.021,387.103z"/>
			<path style="fill:#353945;" d="M53.275,293.279c0.865,0.864,0.866,2.266,0.002,3.131c-0.864,0.865-2.266,0.866-3.131,0.002
				c-0.865-0.864-0.866-2.266-0.002-3.131C51.007,292.416,52.409,292.415,53.275,293.279z"/>
			<path style="fill:#FFA904;" d="M191.998,380.697l-27.254,19.316l-36.656-60.938c-2.059-3.423-1.131-7.854,2.128-10.164
				l5.481-3.884c3.232-2.291,7.679-1.729,10.24,1.294L191.998,380.697z"/>
			<path style="fill:#EB8A03;" d="M165.703,395.007l-34.924-58.503c-0.869-1.455-0.472-3.334,0.911-4.314l6.578-4.662
				c1.37-0.971,3.255-0.737,4.346,0.539l44.344,51.876L165.703,395.007z"/>
			<path style="fill:#353945;" d="M138.997,334.18c0.985,0.724,1.196,2.111,0.472,3.095c-0.725,0.985-2.111,1.196-3.096,0.472
				c-0.985-0.725-1.196-2.111-0.471-3.096C136.626,333.667,138.012,333.456,138.997,334.18z"/>
			<polygon style="fill:#353945;" points="91.729,405.721 103.094,385.196 98.879,385.206 76.878,410.375 			"/>
		</g>
		<rect x="136.636" y="413.225" style="fill:#353945;" width="74.132" height="9.82"/>
		<g>
			<path style="fill:#353945;stroke:#5A6175;stroke-width:2;stroke-miterlimit:10;" d="M123.886,452.935h105.133
				c6.907,0,12.506-5.599,12.506-12.506l0,0c0-6.907-5.599-12.506-12.506-12.506H123.886c-6.907,0-12.506,5.599-12.506,12.506l0,0
				C111.38,447.336,116.979,452.935,123.886,452.935z"/>
			<path style="fill:none;stroke:#87858A;stroke-miterlimit:10;" d="M124.717,431.569h100.865c4.893,0,8.86,3.967,8.86,8.86l0,0
				c0,4.893-3.967,8.86-8.86,8.86H124.717"/>
			<g>
				
					<ellipse transform="matrix(0.3679 -0.9299 0.9299 0.3679 -265.0402 490.9686)" style="fill:#353945;" cx="228.602" cy="440.429" rx="10.839" ry="10.839"/>
				
					<ellipse transform="matrix(0.3679 -0.9299 0.9299 0.3679 -265.0402 490.9686)" style="fill:#87858A;" cx="228.602" cy="440.429" rx="10.839" ry="10.839"/>
				
					<ellipse transform="matrix(0.9731 -0.2305 0.2305 0.9731 -95.3709 64.5591)" style="fill:#87858A;" cx="228.602" cy="440.429" rx="7.762" ry="7.762"/>
				<path style="fill:#353945;" d="M222.761,440.429c0,3.226,2.615,5.841,5.841,5.841c3.226,0,5.841-2.615,5.841-5.841
					s-2.615-5.841-5.841-5.841C225.376,434.588,222.761,437.203,222.761,440.429z"/>
				<path style="fill:#5A6175;" d="M228.602,444.166c2.061,0,3.737-1.677,3.737-3.737c0-2.061-1.676-3.737-3.737-3.737
					c-2.06,0-3.737,1.676-3.737,3.737C224.865,442.49,226.541,444.166,228.602,444.166z"/>
			</g>
			<g>
				
					<ellipse transform="matrix(0.3802 -0.9249 0.9249 0.3802 -329.3876 389.3447)" style="fill:#353945;" cx="125.797" cy="440.429" rx="10.839" ry="10.839"/>
				
					<ellipse transform="matrix(0.3802 -0.9249 0.9249 0.3802 -329.3876 389.3447)" style="fill:#87858A;" cx="125.797" cy="440.429" rx="10.839" ry="10.839"/>
				
					<ellipse transform="matrix(0.9731 -0.2305 0.2305 0.9731 -98.1397 40.8605)" style="fill:#87858A;" cx="125.797" cy="440.429" rx="7.762" ry="7.762"/>
				<path style="fill:#353945;" d="M119.956,440.429c0,3.226,2.615,5.841,5.841,5.841c3.226,0,5.841-2.615,5.841-5.841
					s-2.615-5.841-5.841-5.841C122.571,434.588,119.956,437.203,119.956,440.429z"/>
				<path style="fill:#5A6175;" d="M125.797,444.166c2.061,0,3.737-1.677,3.737-3.737c0-2.061-1.677-3.737-3.737-3.737
					c-2.06,0-3.737,1.676-3.737,3.737C122.06,442.49,123.737,444.166,125.797,444.166z"/>
			</g>
			<rect x="140.982" y="438.217" style="fill:#87858A;" width="73.858" height="4.925"/>
		</g>
		<polygon style="fill:#FFA904;" points="219.148,417.971 162.588,417.971 162.588,374.593 205.408,374.593 219.148,396.282 		"/>
		<polygon style="fill:#EB8A03;" points="208.506,379.482 205.408,374.593 162.588,374.593 162.588,379.482 		"/>
		<path style="fill:#5A6175;" d="M185.882,387.8l-1.74-33.439c-0.271-5.209-4.574-9.294-9.79-9.294h-17.36
			c-3.427,0-6.605,1.79-8.382,4.72l-18.077,29.806c-0.93,1.533-1.421,3.291-1.421,5.084v33.294h39.805L185.882,387.8z"/>
		<path style="fill:#353945;" d="M138.915,399.123h27.945l15.285-24.616l-1.04-19.987c-0.187-3.595-3.153-6.412-6.754-6.412h-17.36
			c-2.349,0-4.565,1.248-5.782,3.256l-18.077,29.805c-0.641,1.059-0.981,2.272-0.981,3.509v7.682
			C132.152,396.089,135.186,399.123,138.915,399.123z"/>
		<g>
			<defs>
				<path id="SVGID_00000163789554625840216020000014121078362290058113_" d="M138.915,397.096c-2.611,0-4.736-2.125-4.736-4.736
					v-7.682c0-0.866,0.238-1.716,0.688-2.458l18.076-29.804c0.853-1.406,2.404-2.28,4.049-2.28h17.36c2.521,0,4.598,1.972,4.73,4.49
					l0.989,19.014l-14.953,23.457H138.915z"/>
			</defs>
			<clipPath id="SVGID_00000034781454440037044650000010733027628269106059_">
				<use xlink:href="#SVGID_00000163789554625840216020000014121078362290058113_"  style="overflow:visible;"/>
			</clipPath>
			<g style="clip-path:url(#SVGID_00000034781454440037044650000010733027628269106059_);">
				<path style="fill:#98D7F6;" d="M138.915,397.096c-2.611,0-4.736-2.125-4.736-4.736v-7.682c0-0.866,0.238-1.716,0.688-2.458
					l18.076-29.804c0.853-1.406,2.404-2.28,4.049-2.28h17.36c2.521,0,4.598,1.972,4.73,4.49l0.989,19.014l-14.953,23.457H138.915z"
					/>
			</g>
			
				<polygon style="opacity:0.42;clip-path:url(#SVGID_00000034781454440037044650000010733027628269106059_);fill:#FFFFFF;" points="
				136.76,398.32 150.7,398.32 170.278,348.91 156.554,348.91 			"/>
			
				<polygon style="opacity:0.42;clip-path:url(#SVGID_00000034781454440037044650000010733027628269106059_);fill:#FFFFFF;" points="
				153.466,398.32 158.656,398.32 178.233,348.91 173.26,348.91 			"/>
		</g>
		<rect x="165.875" y="350.135" style="fill:#353945;" width="2.116" height="47.165"/>
		<g>
			<rect x="191.998" y="390.371" style="fill:#353945;" width="14.154" height="20.005"/>
			<rect x="193.377" y="393.147" style="fill:#5A6175;" width="11.398" height="1.762"/>
			<rect x="193.377" y="396.58" style="fill:#5A6175;" width="11.398" height="1.762"/>
			<rect x="193.377" y="400.013" style="fill:#5A6175;" width="11.398" height="1.763"/>
			<rect x="193.377" y="403.446" style="fill:#5A6175;" width="11.398" height="1.763"/>
			<rect x="193.377" y="406.879" style="fill:#5A6175;" width="11.398" height="1.762"/>
		</g>
	</g>
	<g>
		
			<rect x="97.3" y="157.551" transform="matrix(-1 -1.224647e-16 1.224647e-16 -1 205.5344 326.0351)" style="fill:#5A6175;" width="10.933" height="10.933"/>
		
			<rect x="95.93" y="154.099" transform="matrix(-1 -1.224647e-16 1.224647e-16 -1 205.5344 312.5592)" style="fill:#353945;" width="13.674" height="4.361"/>
		
			<rect x="53.839" y="195.608" transform="matrix(-1 -1.224647e-16 1.224647e-16 -1 257.5166 414.8695)" style="fill:#EB8A03;" width="149.838" height="23.654"/>
		
			<rect x="53.839" y="203.666" transform="matrix(-1 -1.224647e-16 1.224647e-16 -1 257.5166 412.4584)" style="fill:#FFCB04;" width="149.838" height="5.126"/>
		<g>
			
				<rect x="198.982" y="142.39" transform="matrix(-1 -1.224647e-16 1.224647e-16 -1 408.167 288.6531)" style="fill:#353945;" width="10.202" height="3.872"/>
			
				<rect x="201.739" y="191.226" transform="matrix(-1 -1.224647e-16 1.224647e-16 -1 410.0762 411.492)" style="fill:#5A6175;" width="6.599" height="29.04"/>
			<g>
				<polygon style="fill:#353945;" points="208.338,227.091 248.862,227.091 255.293,222.749 208.338,222.749 				"/>
				<path style="fill:#353945;" d="M206.634,227.091h5.1v-79.803c0-1.408-1.142-2.55-2.55-2.55l0,0c-1.408,0-2.55,1.142-2.55,2.55
					V227.091z"/>
			</g>
			<g>
				<polygon style="fill:#353945;" points="208.338,217.173 248.862,217.173 255.293,212.83 208.338,212.83 				"/>
				<path style="fill:#353945;" d="M206.634,217.173h5.1v-79.803c0-1.408-1.142-2.55-2.55-2.55l0,0c-1.408,0-2.55,1.142-2.55,2.55
					V217.173z"/>
			</g>
			
				<rect x="192.307" y="123.022" transform="matrix(-1 -1.224647e-16 1.224647e-16 -1 394.0461 351.3588)" style="fill:#353945;" width="9.431" height="105.315"/>
			
				<rect x="192.307" y="123.022" transform="matrix(-1 -1.224647e-16 1.224647e-16 -1 387.723 351.3588)" style="fill:#5A6175;" width="3.108" height="105.315"/>
			
				<rect x="189.627" y="114.411" transform="matrix(-1 -1.224647e-16 1.224647e-16 -1 397.965 237.4325)" style="fill:#5A6175;" width="18.71" height="8.611"/>
			
				<rect x="189.627" y="118.716" transform="matrix(-1 -1.224647e-16 1.224647e-16 -1 397.965 241.7381)" style="fill:#353945;" width="18.71" height="4.306"/>
		</g>
		
			<rect x="62.9" y="214.265" transform="matrix(-1 -1.224647e-16 1.224647e-16 -1 227.608 446.7318)" style="fill:#272A33;" width="101.809" height="18.202"/>
		
			<rect x="57.363" y="202.278" transform="matrix(-1 -1.224647e-16 1.224647e-16 -1 139.1324 416.7593)" style="fill:#353945;" width="24.406" height="12.203"/>
		
			<rect x="57.363" y="198.922" transform="matrix(-1 -1.224647e-16 1.224647e-16 -1 129.5916 410.0476)" style="fill:#353945;" width="14.865" height="12.203"/>
		
			<rect x="70.177" y="218.67" transform="matrix(-1 -1.224647e-16 1.224647e-16 -1 230.6572 444.3574)" style="fill:#353945;" width="90.303" height="7.017"/>
		<g>
			<polygon style="fill:#FFA904;" points="73.869,201.168 142.598,201.168 142.598,165.814 88.325,165.814 73.869,183.491 			"/>
			<path style="fill:#5A6175;" d="M117.251,199.593l-4.125-4.125c-1.077-1.078-1.647-2.562-1.568-4.083l2.485-47.77
				c0.149-2.858,2.51-5.1,5.372-5.1h51.384c2.356,0,4.439,1.534,5.137,3.784l11.146,35.895c0.16,0.517,0.242,1.054,0.242,1.595
				v16.001c0,2.971-2.408,5.379-5.379,5.379h-60.89C119.628,201.168,118.26,200.602,117.251,199.593z"/>
			<g>
				<path style="fill:#353945;" d="M181.762,197.599c1.1,0,1.991-0.892,1.991-1.991l0-15.078c0-0.217-0.035-0.431-0.104-0.633
					l-12.122-36.45c-0.271-0.814-1.032-1.363-1.89-1.363h-45.118c-3.826,0-6.979,2.993-7.179,6.814l-1.085,20.866
					c-0.032,0.605,0.214,1.191,0.667,1.594c6.276,5.562,23.921,21.043,29.614,25.781c0.357,0.298,0.809,0.461,1.274,0.461H181.762z"
					/>
				<g>
					<polygon style="fill:#98D7F6;" points="136.86,144.075 157.279,195.608 154.242,195.608 133.597,144.075 					"/>
					<polygon style="fill:#98D7F6;" points="169.638,144.075 181.761,180.525 181.763,180.53 181.763,195.607 181.762,195.608 
						172.574,195.608 151.93,144.075 					"/>
					<path style="fill:#98D7F6;" d="M118.245,169.867l1.085-20.865c0.144-2.763,2.424-4.927,5.19-4.927h3.61l20.419,51.532h-0.737
						C142.203,190.939,124.531,175.439,118.245,169.867z"/>
					<polygon style="fill:#98D7F6;" points="151.93,144.075 172.574,195.608 157.279,195.608 136.86,144.075 					"/>
					<polygon style="opacity:0.42;fill:#FFFFFF;" points="151.93,144.075 172.574,195.608 157.279,195.608 136.86,144.075 					"/>
					<polygon style="fill:#98D7F6;" points="133.597,144.075 154.242,195.608 148.549,195.608 128.13,144.075 					"/>
					<polygon style="opacity:0.42;fill:#FFFFFF;" points="133.597,144.075 154.242,195.608 148.549,195.608 128.13,144.075 					"/>
				</g>
			</g>
			
				<rect x="144.362" y="142.958" transform="matrix(-1 -1.224647e-16 1.224647e-16 -1 292.2533 338.5658)" style="fill:#353945;" width="3.53" height="52.649"/>
			<polygon style="fill:#353945;" points="169.439,195.608 171.973,195.608 171.973,146.941 169.439,142.958 			"/>
		</g>
		<g>
			<g>
				
					<ellipse transform="matrix(0.973 -0.2307 0.2307 0.973 -46.7649 45.2653)" style="fill:#353945;" cx="170.186" cy="222.613" rx="19.028" ry="19.028"/>
				
					<ellipse transform="matrix(0.9729 -0.231 0.231 0.9729 -46.8238 45.3374)" style="fill:#5A6175;" cx="170.186" cy="222.613" rx="12.776" ry="12.776"/>
				<path style="fill:#FFCB04;" d="M160.572,222.613c0,5.309,4.304,9.614,9.614,9.614c5.31,0,9.614-4.304,9.614-9.614
					c0-5.31-4.304-9.614-9.614-9.614C164.876,212.999,160.572,217.304,160.572,222.613z"/>
				<path style="fill:#353945;" d="M170.185,228.764c3.392,0,6.151-2.759,6.151-6.151c0-3.392-2.759-6.151-6.151-6.151
					c-3.391,0-6.15,2.759-6.15,6.151C164.035,226.005,166.794,228.764,170.185,228.764z"/>
			</g>
			<g>
				<g>
					<path style="fill:#353945;" d="M161.248,240.678l-0.055-1.569c-0.007-0.184,0.177-0.314,0.348-0.248l4.184,1.608
						c0.171,0.066,0.22,0.285,0.092,0.418l-1.092,1.128c-0.071,0.074-0.18,0.098-0.276,0.061l-3.037-1.167
						C161.317,240.872,161.252,240.781,161.248,240.678z"/>
					<path style="fill:#353945;" d="M179.123,204.548l0.055,1.569c0.006,0.184-0.177,0.314-0.348,0.248l-4.184-1.608
						c-0.171-0.066-0.22-0.285-0.092-0.418l1.092-1.128c0.072-0.074,0.18-0.098,0.276-0.061l3.037,1.167
						C179.055,204.355,179.119,204.445,179.123,204.548z"/>
				</g>
				<g>
					<path style="fill:#353945;" d="M152.12,213.676l1.569-0.055c0.184-0.007,0.314,0.177,0.248,0.348l-1.608,4.184
						c-0.066,0.172-0.286,0.22-0.418,0.092l-1.128-1.092c-0.074-0.072-0.098-0.18-0.061-0.276l1.167-3.037
						C151.927,213.744,152.018,213.68,152.12,213.676z"/>
					<path style="fill:#353945;" d="M188.251,231.551l-1.569,0.055c-0.184,0.007-0.314-0.177-0.248-0.348l1.608-4.184
						c0.066-0.172,0.285-0.22,0.417-0.092l1.128,1.092c0.074,0.072,0.098,0.18,0.061,0.276l-1.167,3.037
						C188.444,231.482,188.353,231.547,188.251,231.551z"/>
				</g>
				<g>
					<path style="fill:#353945;" d="M151.092,229.068l1.07-1.148c0.125-0.134,0.347-0.097,0.422,0.07l1.822,4.095
						c0.075,0.168-0.046,0.357-0.23,0.36l-1.57,0.026c-0.103,0.002-0.197-0.058-0.238-0.152l-1.322-2.973
						C151.003,229.253,151.022,229.143,151.092,229.068z"/>
					<path style="fill:#353945;" d="M189.279,216.159l-1.07,1.148c-0.125,0.134-0.347,0.097-0.422-0.071l-1.822-4.095
						c-0.075-0.168,0.046-0.357,0.23-0.36l1.57-0.026c0.103-0.002,0.197,0.058,0.238,0.152l1.322,2.973
						C189.368,215.974,189.349,216.084,189.279,216.159z"/>
				</g>
				<g>
					<path style="fill:#353945;" d="M163.731,203.52l1.149,1.07c0.134,0.125,0.097,0.347-0.071,0.422l-4.095,1.822
						c-0.168,0.075-0.357-0.046-0.361-0.23l-0.026-1.57c-0.002-0.103,0.058-0.197,0.152-0.238l2.973-1.322
						C163.546,203.431,163.656,203.45,163.731,203.52z"/>
					<path style="fill:#353945;" d="M176.64,241.707l-1.148-1.07c-0.134-0.125-0.097-0.347,0.071-0.422l4.095-1.822
						c0.168-0.075,0.357,0.046,0.36,0.23l0.026,1.57c0.002,0.103-0.058,0.197-0.152,0.238l-2.972,1.322
						C176.825,241.795,176.715,241.777,176.64,241.707z"/>
				</g>
			</g>
			<g>
				<g>
					<path style="fill:#353945;" d="M154.678,235.487l0.587-1.456c0.069-0.17,0.289-0.215,0.419-0.085l3.169,3.169
						c0.13,0.13,0.085,0.35-0.085,0.419l-1.456,0.587c-0.095,0.039-0.204,0.016-0.277-0.056l-2.3-2.3
						C154.662,235.691,154.639,235.582,154.678,235.487z"/>
					<path style="fill:#353945;" d="M185.693,209.74l-0.587,1.456c-0.069,0.17-0.289,0.215-0.419,0.085l-3.169-3.169
						c-0.13-0.13-0.085-0.35,0.085-0.419l1.456-0.587c0.095-0.039,0.204-0.016,0.277,0.056l2.301,2.3
						C185.709,209.535,185.732,209.644,185.693,209.74z"/>
				</g>
				<g>
					<path style="fill:#353945;" d="M157.312,207.106l1.456,0.587c0.17,0.069,0.215,0.289,0.085,0.419l-3.169,3.169
						c-0.13,0.13-0.35,0.085-0.419-0.085l-0.587-1.456c-0.038-0.095-0.016-0.204,0.057-0.277l2.3-2.3
						C157.107,207.089,157.216,207.067,157.312,207.106z"/>
					<path style="fill:#353945;" d="M183.059,238.121l-1.456-0.587c-0.17-0.069-0.215-0.289-0.085-0.419l3.169-3.169
						c0.13-0.13,0.35-0.085,0.419,0.085l0.587,1.456c0.038,0.095,0.016,0.204-0.056,0.277l-2.301,2.3
						C183.264,238.137,183.155,238.16,183.059,238.121z"/>
				</g>
				<g>
					<path style="fill:#353945;" d="M150.117,220.751l1.445-0.614c0.169-0.072,0.357,0.052,0.357,0.236v4.482
						c0,0.184-0.188,0.308-0.357,0.236l-1.445-0.614c-0.095-0.04-0.156-0.133-0.156-0.236v-3.253
						C149.961,220.884,150.022,220.791,150.117,220.751z"/>
					<path style="fill:#353945;" d="M190.254,224.476l-1.445,0.614c-0.169,0.072-0.357-0.052-0.357-0.236v-4.482
						c0-0.184,0.187-0.308,0.357-0.236l1.445,0.614c0.095,0.04,0.156,0.133,0.156,0.236v3.253
						C190.41,224.343,190.349,224.436,190.254,224.476z"/>
				</g>
				<g>
					<path style="fill:#353945;" d="M172.048,202.545l0.614,1.445c0.072,0.169-0.052,0.357-0.236,0.357h-4.482
						c-0.184,0-0.308-0.188-0.236-0.357l0.614-1.445c0.04-0.095,0.133-0.156,0.236-0.156h3.253
						C171.915,202.389,172.008,202.45,172.048,202.545z"/>
					<path style="fill:#353945;" d="M168.323,242.682l-0.614-1.445c-0.072-0.169,0.052-0.357,0.236-0.357h4.482
						c0.184,0,0.308,0.188,0.236,0.357l-0.614,1.445c-0.04,0.095-0.133,0.156-0.236,0.156h-3.253
						C168.456,242.838,168.363,242.777,168.323,242.682z"/>
				</g>
			</g>
		</g>
		<g>
			<g>
				
					<ellipse transform="matrix(0.9732 -0.2298 0.2298 0.9732 -48.3826 23.0058)" style="fill:#353945;" cx="74.602" cy="219.271" rx="22.172" ry="22.172"/>
				
					<ellipse transform="matrix(0.8507 -0.5257 0.5257 0.8507 -104.1356 71.9682)" style="fill:#5A6175;" cx="74.602" cy="219.271" rx="14.887" ry="14.887"/>
				<path style="fill:#FFCB04;" d="M63.4,219.271c0,6.187,5.015,11.202,11.202,11.202c6.187,0,11.202-5.015,11.202-11.202
					c0-6.187-5.015-11.203-11.202-11.203C68.415,208.068,63.4,213.084,63.4,219.271z"/>
				<path style="fill:#353945;" d="M74.602,226.438c3.952,0,7.168-3.215,7.168-7.167c0-3.952-3.215-7.168-7.168-7.168
					c-3.951,0-7.167,3.215-7.167,7.168C67.435,223.223,70.65,226.438,74.602,226.438z"/>
			</g>
			<g>
				<g>
					<path style="fill:#353945;" d="M64.188,240.322l-0.064-1.828c-0.008-0.214,0.206-0.366,0.406-0.289l4.875,1.873
						c0.2,0.077,0.256,0.333,0.108,0.487l-1.272,1.315c-0.083,0.086-0.21,0.114-0.322,0.071l-3.539-1.36
						C64.267,240.547,64.192,240.441,64.188,240.322z"/>
					<path style="fill:#353945;" d="M85.016,198.221l0.064,1.828c0.008,0.214-0.206,0.366-0.406,0.289l-4.875-1.873
						c-0.2-0.077-0.256-0.333-0.107-0.487l1.272-1.315c0.083-0.086,0.21-0.114,0.322-0.071l3.539,1.36
						C84.937,197.995,85.012,198.101,85.016,198.221z"/>
				</g>
				<g>
					<path style="fill:#353945;" d="M53.551,208.857l1.828-0.064c0.214-0.008,0.366,0.206,0.289,0.406l-1.873,4.875
						c-0.077,0.2-0.333,0.256-0.486,0.107l-1.315-1.272c-0.086-0.083-0.114-0.21-0.071-0.322l1.36-3.539
						C53.326,208.936,53.432,208.861,53.551,208.857z"/>
					<path style="fill:#353945;" d="M95.652,229.685l-1.828,0.064c-0.214,0.008-0.366-0.206-0.289-0.406l1.873-4.875
						c0.077-0.2,0.333-0.256,0.487-0.107l1.315,1.272c0.086,0.083,0.114,0.21,0.071,0.322l-1.36,3.539
						C95.878,229.606,95.772,229.681,95.652,229.685z"/>
				</g>
				<g>
					<path style="fill:#353945;" d="M52.353,226.792l1.247-1.338c0.146-0.157,0.404-0.113,0.491,0.082l2.123,4.772
						c0.087,0.196-0.054,0.417-0.268,0.42l-1.829,0.03c-0.12,0.002-0.229-0.068-0.278-0.177l-1.541-3.464
						C52.25,227.008,52.271,226.88,52.353,226.792z"/>
					<path style="fill:#353945;" d="M96.851,211.75l-1.247,1.338c-0.146,0.157-0.404,0.113-0.491-0.082l-2.123-4.772
						c-0.087-0.196,0.054-0.417,0.268-0.42l1.829-0.03c0.12-0.002,0.229,0.068,0.278,0.177l1.541,3.464
						C96.954,211.535,96.933,211.662,96.851,211.75z"/>
				</g>
				<g>
					<path style="fill:#353945;" d="M67.081,197.022l1.338,1.247c0.157,0.146,0.113,0.404-0.082,0.491l-4.772,2.123
						c-0.196,0.087-0.417-0.054-0.42-0.268l-0.03-1.829c-0.002-0.12,0.068-0.229,0.177-0.278l3.464-1.541
						C66.865,196.919,66.993,196.94,67.081,197.022z"/>
					<path style="fill:#353945;" d="M82.123,241.52l-1.338-1.247c-0.157-0.146-0.113-0.404,0.082-0.491l4.772-2.123
						c0.196-0.087,0.416,0.054,0.42,0.268l0.03,1.829c0.002,0.12-0.068,0.229-0.177,0.278l-3.464,1.541
						C82.339,241.623,82.211,241.602,82.123,241.52z"/>
				</g>
			</g>
			<g>
				<g>
					<path style="fill:#353945;" d="M56.531,234.272l0.684-1.697c0.08-0.199,0.337-0.251,0.488-0.1l3.693,3.693
						c0.151,0.151,0.099,0.408-0.099,0.488l-1.697,0.684c-0.111,0.045-0.238,0.019-0.323-0.066l-2.681-2.681
						C56.513,234.51,56.487,234.383,56.531,234.272z"/>
					<path style="fill:#353945;" d="M92.673,204.27l-0.684,1.697c-0.08,0.198-0.337,0.251-0.488,0.099l-3.693-3.693
						c-0.151-0.151-0.099-0.408,0.1-0.488l1.697-0.684c0.111-0.045,0.238-0.019,0.323,0.066l2.681,2.681
						C92.691,204.032,92.717,204.159,92.673,204.27z"/>
				</g>
				<g>
					<path style="fill:#353945;" d="M59.601,201.201l1.697,0.684c0.198,0.08,0.251,0.337,0.099,0.488l-3.693,3.693
						c-0.151,0.151-0.408,0.099-0.488-0.099l-0.684-1.697c-0.045-0.111-0.019-0.238,0.066-0.323l2.681-2.681
						C59.362,201.182,59.49,201.156,59.601,201.201z"/>
					<path style="fill:#353945;" d="M89.603,237.342l-1.697-0.684c-0.199-0.08-0.251-0.337-0.1-0.488l3.693-3.693
						c0.151-0.151,0.408-0.099,0.488,0.1l0.684,1.697c0.045,0.111,0.019,0.238-0.066,0.323l-2.681,2.681
						C89.841,237.361,89.714,237.386,89.603,237.342z"/>
				</g>
				<g>
					<path style="fill:#353945;" d="M51.217,217.101l1.683-0.716c0.197-0.084,0.416,0.061,0.416,0.275v5.223
						c0,0.214-0.219,0.359-0.416,0.275l-1.683-0.716c-0.11-0.047-0.182-0.155-0.182-0.275v-3.791
						C51.035,217.256,51.106,217.148,51.217,217.101z"/>
					<path style="fill:#353945;" d="M97.987,221.441l-1.683,0.716c-0.197,0.084-0.416-0.061-0.416-0.275v-5.223
						c0-0.214,0.218-0.359,0.416-0.275l1.683,0.716c0.11,0.047,0.182,0.155,0.182,0.275v3.791
						C98.169,221.286,98.098,221.395,97.987,221.441z"/>
				</g>
				<g>
					<path style="fill:#353945;" d="M76.772,195.886l0.716,1.683c0.084,0.197-0.061,0.416-0.275,0.416h-5.223
						c-0.214,0-0.359-0.219-0.275-0.416l0.716-1.683c0.047-0.11,0.155-0.182,0.275-0.182h3.791
						C76.617,195.704,76.725,195.775,76.772,195.886z"/>
					<path style="fill:#353945;" d="M72.432,242.656l-0.716-1.684c-0.084-0.197,0.061-0.416,0.275-0.416h5.223
						c0.214,0,0.359,0.219,0.275,0.416l-0.716,1.684c-0.047,0.11-0.155,0.182-0.275,0.182h-3.791
						C72.587,242.838,72.479,242.766,72.432,242.656z"/>
				</g>
			</g>
		</g>
		<g>
			
				<rect x="83.389" y="178.707" transform="matrix(-1 -1.224647e-16 1.224647e-16 -1 186.1565 360.2298)" style="fill:#5A6175;" width="19.378" height="2.815"/>
			
				<rect x="83.389" y="184.507" transform="matrix(-1 -1.224647e-16 1.224647e-16 -1 186.1565 371.8285)" style="fill:#5A6175;" width="19.378" height="2.815"/>
			
				<rect x="83.389" y="190.306" transform="matrix(-1 -1.224647e-16 1.224647e-16 -1 186.1565 383.4271)" style="fill:#5A6175;" width="19.378" height="2.815"/>
		</g>
	</g>
</g>
</svg>
